<svg xmlns="http://www.w3.org/2000/svg" width="400.0" height="400.0" viewBox="0.0 0.0 400.0 400.0" fill="none">
<rect width="400" height="400" fill="black" />
<path d="M202.579 101.604C199.639 106.305 197.273 111.406 195.61 116.814H147.145C130.34 116.816 116.714 130.444 116.711 147.248V253.774C116.714 270.579 130.34 284.194 147.145 284.195H253.671C270.474 284.192 284.088 270.578 284.092 253.774V194.752C289.628 192.243 294.743 188.984 299.315 185.093V253.774C299.312 278.982 278.878 299.416 253.671 299.419H147.145C121.936 299.417 101.503 278.983 101.5 253.774V147.248C101.503 122.04 121.936 101.605 147.145 101.604H202.579ZM254.594 78.7744C255.85 78.7744 256.944 79.6326 257.25 80.8516C258.19 84.5798 259.415 88.2163 260.94 91.7539C264.914 100.985 270.365 109.065 277.287 115.987C284.213 122.91 292.29 128.36 301.521 132.334C305.062 133.859 308.695 135.085 312.423 136.024C313.642 136.331 314.5 137.424 314.5 138.681C314.5 139.937 313.642 141.03 312.423 141.337C308.695 142.277 305.058 143.502 301.521 145.027C292.29 149.001 284.209 154.452 277.287 161.374C270.365 168.3 264.914 176.377 260.94 185.607C259.415 189.148 258.19 192.781 257.25 196.51C256.944 197.729 255.85 198.587 254.594 198.587C253.337 198.587 252.244 197.729 251.938 196.51C250.998 192.781 249.772 189.145 248.247 185.607C244.274 176.377 238.826 168.296 231.9 161.374C224.975 154.452 216.898 149.001 207.667 145.027C204.126 143.502 200.493 142.277 196.765 141.337C195.546 141.03 194.688 139.937 194.688 138.681C194.688 137.424 195.546 136.331 196.765 136.024C200.493 135.085 204.129 133.859 207.667 132.334C216.898 128.36 224.978 122.91 231.9 115.987C238.823 109.065 244.274 100.985 248.247 91.7539C249.772 88.2129 250.998 84.5798 251.938 80.8516C252.244 79.6326 253.337 78.7744 254.594 78.7744Z" fill="#5F6368" />
<path d="M202.579 101.604C199.639 106.305 197.273 111.406 195.61 116.814H147.145C130.34 116.816 116.714 130.444 116.711 147.248V253.774C116.714 270.579 130.34 284.194 147.145 284.195H253.671C270.474 284.192 284.088 270.578 284.092 253.774V194.752C289.628 192.243 294.743 188.984 299.315 185.093V253.774C299.312 278.982 278.878 299.416 253.671 299.419H147.145C121.936 299.417 101.503 278.983 101.5 253.774V147.248C101.503 122.04 121.936 101.605 147.145 101.604H202.579ZM254.594 78.7744C255.85 78.7744 256.944 79.6326 257.25 80.8516C258.19 84.5798 259.415 88.2163 260.94 91.7539C264.914 100.985 270.365 109.065 277.287 115.987C284.213 122.91 292.29 128.36 301.521 132.334C305.062 133.859 308.695 135.085 312.423 136.024C313.642 136.331 314.5 137.424 314.5 138.681C314.5 139.937 313.642 141.03 312.423 141.337C308.695 142.277 305.058 143.502 301.521 145.027C292.29 149.001 284.209 154.452 277.287 161.374C270.365 168.3 264.914 176.377 260.94 185.607C259.415 189.148 258.19 192.781 257.25 196.51C256.944 197.729 255.85 198.587 254.594 198.587C253.337 198.587 252.244 197.729 251.938 196.51C250.998 192.781 249.772 189.145 248.247 185.607C244.274 176.377 238.826 168.296 231.9 161.374C224.975 154.452 216.898 149.001 207.667 145.027C204.126 143.502 200.493 142.277 196.765 141.337C195.546 141.03 194.688 139.937 194.688 138.681C194.688 137.424 195.546 136.331 196.765 136.024C200.493 135.085 204.129 133.859 207.667 132.334C216.898 128.36 224.978 122.91 231.9 115.987C238.823 109.065 244.274 100.985 248.247 91.7539C249.772 88.2129 250.998 84.5798 251.938 80.8516C252.244 79.6326 253.337 78.7744 254.594 78.7744Z" fill="url(#paint0_linear_4011_23230)" />
<defs>
<linearGradient id="paint0_linear_4011_23230" x1="167.791" y1="221.396" x2="266.95" y2="140.691" gradientUnits="userSpaceOnUse">
<stop stop-color="#346BF1" />
<stop offset="0.371606" stop-color="#3186FF" />
<stop offset="0.776981" stop-color="#4FA0FF" />
</linearGradient>
</defs>
</svg>